<svg id="Layer_1" data-name="Layer 1" xmlns="http://www.w3.org/2000/svg" viewBox="0 0 276.97314 57.39893"><script xmlns="" async="false" type="text/javascript" src="moz-extension://b36d4de6-de7c-417f-9fd3-c1d0171b107f/in-page.js"/><defs><style>.cls-1{fill:#1da9ff;}</style></defs><path class="cls-1" d="M18.87646,3.4502a3.11823,3.11823,0,0,1,1.103-2.17579l.8003.47266a3.03749,3.03749,0,0,0-.541,1.69434v.92822H18.87646Zm2.14991,0a3.11822,3.11822,0,0,1,1.103-2.17579l.8003.47266a3.03749,3.03749,0,0,0-.541,1.69434v.92822h-1.3623Z"/><path class="cls-1" d="M22.40088,10.36377,25.41064,1.645h2.37549L30.792,10.36377H28.81641l-.647-1.98828h-3.146l-.647,1.98828Zm5.30469-3.42725L26.63281,3.63721h-.06836L25.4917,6.93652Z"/><path class="cls-1" d="M33.627,10.36377H31.81348V3.82471H33.542V4.97852h.07666a1.97527,1.97527,0,0,1,1.9668-1.23877A2.20533,2.20533,0,0,1,37.8418,6.2002v4.16357H36.02832V6.52393a1.12207,1.12207,0,0,0-1.16211-1.27735A1.20637,1.20637,0,0,0,33.627,6.5835Z"/><path class="cls-1" d="M39.01514,12.62842l.40869-1.35352c.63818.1958,1.09375.166,1.33252-.44726l.10644-.27637-2.3457-6.72656h1.90723L41.77783,8.627h.06836L43.2124,3.82471h1.91992l-2.5415,7.2456a2.35849,2.35849,0,0,1-2.43506,1.74561A3.12465,3.12465,0,0,1,39.01514,12.62842Z"/><path class="cls-1" d="M52.36621,5.187H51.06787v5.17676h-1.814V5.187h-.92334V3.82471h.92334V3.35205a1.96416,1.96416,0,0,1,2.146-2.11572,4.78631,4.78631,0,0,1,1.28125.17871l-.31933,1.3623a2.01037,2.01037,0,0,0-.583-.09375c-.53223,0-.71094.25977-.71094.70264v.43848h1.29834Z"/><path class="cls-1" d="M52.9834,7.11963a3.22212,3.22212,0,1,1,6.43652,0,3.22177,3.22177,0,1,1-6.43652,0Zm4.59326-.0127c0-1.14062-.46826-1.98388-1.3667-1.98388-.915,0-1.3833.84326-1.3833,1.98388,0,1.14112.46826,1.9795,1.3833,1.9795C57.1084,9.08643,57.57666,8.248,57.57666,7.10693Z"/><path class="cls-1" d="M60.34668,7.11963a3.22212,3.22212,0,1,1,6.43652,0,3.22177,3.22177,0,1,1-6.43652,0Zm4.59326-.0127c0-1.14062-.46826-1.98388-1.3667-1.98388-.915,0-1.3833.84326-1.3833,1.98388,0,1.14112.46826,1.9795,1.3833,1.9795C64.47168,9.08643,64.93994,8.248,64.93994,7.10693Z"/><path class="cls-1" d="M69.7876,10.36377H67.97412V1.645H69.7876Z"/><path class="cls-1" d="M73.75684,7.11963a3.09727,3.09727,0,0,1,3.21-3.37988,2.65071,2.65071,0,0,1,2.92871,2.50293H78.18408a1.16529,1.16529,0,0,0-1.1875-1.08985c-.84326,0-1.39648.707-1.39648,1.94141,0,1.25146.54931,1.9624,1.39648,1.9624a1.16415,1.16415,0,0,0,1.1875-1.08984h1.71143a2.64973,2.64973,0,0,1-2.92041,2.5249A3.09017,3.09017,0,0,1,73.75684,7.11963Z"/><path class="cls-1" d="M80.76172,8.5376c0-1.46045,1.1626-1.89453,2.45654-2.01367,1.13672-.11084,1.584-.166,1.584-.58741V5.91064c0-.53613-.35352-.84716-.97071-.84716a1.09477,1.09477,0,0,0-1.16259.75341L80.9917,5.68066a2.60433,2.60433,0,0,1,2.84814-1.94091c1.45606,0,2.77588.65527,2.77588,2.21337v4.41065H84.89551V9.457h-.05078a2.00809,2.00809,0,0,1-1.91162,1.03027A1.91688,1.91688,0,0,1,80.76172,8.5376Zm4.05322-.51123V7.33252a4.34766,4.34766,0,0,1-1.26025.29394c-.63867.08936-1.06006.34034-1.06006.85157,0,.498.40039.75781.958.75781A1.25536,1.25536,0,0,0,84.81494,8.02637Z"/><path class="cls-1" d="M89.84473,10.36377H88.03125V3.82471h1.72852V4.97852h.07666a1.97525,1.97525,0,0,1,1.96679-1.23877A2.20532,2.20532,0,0,1,94.05957,6.2002v4.16357H92.24609V6.52393A1.12207,1.12207,0,0,0,91.084,5.24658,1.20636,1.20636,0,0,0,89.84473,6.5835Z"/><path class="cls-1" d="M97.78564,3.82471h1.83448l1.01318,4.39355h.05957L101.749,3.82471h1.80078l1.07276,4.36767h.05517l.9961-4.36767h1.83056l-1.7749,6.53906h-1.91992l-1.124-4.11231h-.08106l-1.124,4.11231H99.56494Z"/><path class="cls-1" d="M108.47607,3.82471h1.75831V4.96582h.06835A1.58812,1.58812,0,0,1,111.87354,3.731a2.73458,2.73458,0,0,1,.57031.064V5.4043a3.03518,3.03518,0,0,0-.76612-.09815,1.32067,1.32067,0,0,0-1.38818,1.35791v3.69971h-1.81348Z"/><path class="cls-1" d="M113.313,2.062a.98359.98359,0,0,1,1.9624,0,.98324.98324,0,0,1-1.9624,0Zm.06787,1.7627h1.81348v6.53906h-1.81348Z"/><path class="cls-1" d="M120.12305,5.187h-1.23V8.35449c0,.50244.251.63867.61279.63867a2.5124,2.5124,0,0,0,.45117-.05957l.28565,1.34912a3.52975,3.52975,0,0,1-.9834.17041c-1.31592.05518-2.18848-.5791-2.17969-1.86035V5.187h-.894V3.82471h.894V2.25781h1.81348v1.5669h1.23Z"/><path class="cls-1" d="M120.9751,7.124a3.0964,3.0964,0,0,1,3.17138-3.38427c1.72852,0,3.07373,1.09814,3.07373,3.32031v.49805h-4.45312V7.5625a1.42157,1.42157,0,0,0,1.48145,1.5752,1.23162,1.23162,0,0,0,1.25585-.75782l1.67774.11084a2.7262,2.7262,0,0,1-2.96338,2.001A3.06408,3.06408,0,0,1,120.9751,7.124Zm4.53808-.68945a1.28918,1.28918,0,0,0-1.33691-1.34131,1.38142,1.38142,0,0,0-1.40918,1.34131Z"/><path class="cls-1" d="M130.92871,7.11963a3.09728,3.09728,0,0,1,3.21-3.37988,2.65071,2.65071,0,0,1,2.92871,2.50293H135.356a1.1653,1.1653,0,0,0-1.1875-1.08985c-.84326,0-1.39649.707-1.39649,1.94141,0,1.25146.54932,1.9624,1.39649,1.9624A1.16416,1.16416,0,0,0,135.356,7.9668h1.71142a2.64973,2.64973,0,0,1-2.92041,2.5249A3.09017,3.09017,0,0,1,130.92871,7.11963Z"/><path class="cls-1" d="M137.97656,7.11963a3.22213,3.22213,0,1,1,6.43653,0,3.22177,3.22177,0,1,1-6.43653,0Zm4.59326-.0127c0-1.14062-.46826-1.98388-1.3667-1.98388-.915,0-1.3833.84326-1.3833,1.98388,0,1.14112.46827,1.9795,1.3833,1.9795C142.10156,9.08643,142.56982,8.248,142.56982,7.10693Z"/><path class="cls-1" d="M145.36133,7.10254c0-2.24756,1.21338-3.36279,2.64795-3.36279a1.92679,1.92679,0,0,1,1.86035,1.1831h.05566V1.645h1.80909v8.71875h-1.78809V9.31641h-.07666a1.93254,1.93254,0,0,1-1.856,1.1538C146.52344,10.47021,145.36133,9.291,145.36133,7.10254Zm4.602-.0083c0-1.16651-.49365-1.91162-1.375-1.91162-.89844,0-1.375.77929-1.375,1.91162,0,1.14111.48535,1.93262,1.375,1.93262C149.46094,9.02686,149.96338,8.26074,149.96338,7.09424Z"/><path class="cls-1" d="M152.96338,7.124a3.09641,3.09641,0,0,1,3.17139-3.38427c1.72851,0,3.07373,1.09814,3.07373,3.32031v.49805h-4.45313V7.5625a1.42157,1.42157,0,0,0,1.48145,1.5752,1.23164,1.23164,0,0,0,1.25586-.75782l1.67773.11084a2.7262,2.7262,0,0,1-2.96338,2.001A3.06408,3.06408,0,0,1,152.96338,7.124Zm4.53808-.68945a1.28918,1.28918,0,0,0-1.33691-1.34131,1.38143,1.38143,0,0,0-1.40918,1.34131Z"/><path class="cls-1" d="M166.65918,5.187h-1.23V8.35449c0,.50244.251.63867.61279.63867a2.5124,2.5124,0,0,0,.45117-.05957l.28565,1.34912a3.52975,3.52975,0,0,1-.9834.17041c-1.31592.05518-2.18848-.5791-2.17969-1.86035V5.187h-.894V3.82471h.894V2.25781h1.81348v1.5669h1.23Z"/><path class="cls-1" d="M169.79248,10.36377H167.979V1.645h1.7627v3.3335h.07715a1.93233,1.93233,0,0,1,1.9541-1.23877,2.201,2.201,0,0,1,2.25976,2.46045v4.16357h-1.81347V6.52393a1.11819,1.11819,0,0,0-1.166-1.27735,1.21782,1.21782,0,0,0-1.26074,1.33692Z"/><path class="cls-1" d="M175.16357,8.5376c0-1.46045,1.16309-1.89453,2.457-2.01367,1.13671-.11084,1.584-.166,1.584-.58741V5.91064c0-.53613-.35352-.84716-.9707-.84716a1.09579,1.09579,0,0,0-1.16309.75341L175.394,5.68066a2.60343,2.60343,0,0,1,2.84766-1.94091c1.45605,0,2.77637.65527,2.77637,2.21337v4.41065h-1.72071V9.457h-.05078a2.00779,2.00779,0,0,1-1.91113,1.03027A1.917,1.917,0,0,1,175.16357,8.5376Zm4.05372-.51123V7.33252a4.35139,4.35139,0,0,1-1.26075.29394c-.63867.08936-1.05957.34034-1.05957.85157,0,.498.40039.75781.958.75781A1.25537,1.25537,0,0,0,179.21729,8.02637Z"/><path class="cls-1" d="M185.91162,5.187h-1.23047V8.35449c0,.50244.251.63867.61328.63867a2.52549,2.52549,0,0,0,.45118-.05957l.28515,1.34912a3.52223,3.52223,0,0,1-.9834.17041c-1.31543.05518-2.18847-.5791-2.17968-1.86035V5.187h-.89356V3.82471h.89356V2.25781h1.81347v1.5669h1.23047Z"/><path class="cls-1" d="M189.5708,8.5376c0-1.46045,1.16211-1.89453,2.45606-2.01367,1.13671-.11084,1.584-.166,1.584-.58741V5.91064c0-.53613-.35352-.84716-.9707-.84716a1.09377,1.09377,0,0,0-1.16211.75341l-1.67774-.13623a2.60524,2.60524,0,0,1,2.84864-1.94091c1.45605,0,2.77539.65527,2.77539,2.21337v4.41065h-1.71973V9.457h-.05078a2.00836,2.00836,0,0,1-1.91211,1.03027A1.91671,1.91671,0,0,1,189.5708,8.5376Zm4.05274-.51123V7.33252a4.34409,4.34409,0,0,1-1.25977.29394c-.63867.08936-1.06055.34034-1.06055.85157,0,.498.40039.75781.958.75781A1.25537,1.25537,0,0,0,193.62354,8.02637Z"/><path class="cls-1" d="M199.35889,7.11963a3.09753,3.09753,0,0,1,3.21-3.37988,2.65044,2.65044,0,0,1,2.92871,2.50293h-1.71094a1.1653,1.1653,0,0,0-1.1875-1.08985c-.84375,0-1.39648.707-1.39648,1.94141,0,1.25146.54882,1.9624,1.39648,1.9624a1.16447,1.16447,0,0,0,1.1875-1.08984h1.71094a2.64929,2.64929,0,0,1-2.91992,2.5249A3.09053,3.09053,0,0,1,199.35889,7.11963Z"/><path class="cls-1" d="M206.40674,7.11963a3.22212,3.22212,0,1,1,6.43652,0,3.22177,3.22177,0,1,1-6.43652,0Zm4.59375-.0127c0-1.14062-.46875-1.98388-1.36719-1.98388-.915,0-1.38281.84326-1.38281,1.98388,0,1.14112.46777,1.9795,1.38281,1.9795C210.53174,9.08643,211.00049,8.248,211.00049,7.10693Z"/><path class="cls-1" d="M214.03369,3.82471h1.72852V4.97852h.07715a1.83471,1.83471,0,0,1,1.82226-1.23877A1.72442,1.72442,0,0,1,219.436,4.97852h.06835a2.11148,2.11148,0,0,1,4.03125.98779v4.39746h-1.80859v-4.04a.9727.9727,0,0,0-1.01367-1.08984,1.01988,1.01988,0,0,0-1.04688,1.13672v3.99316h-1.75879V6.28516a.96254.96254,0,0,0-.99609-1.05127,1.09608,1.09608,0,0,0-1.06445,1.20459v3.92529h-1.81348Z"/><path class="cls-1" d="M224.97705,3.82471h1.78809V4.92285h.08105a1.92577,1.92577,0,0,1,1.86035-1.1831c1.43457,0,2.64746,1.11523,2.64746,3.36279,0,2.18848-1.16211,3.36767-2.65234,3.36767a1.9318,1.9318,0,0,1-1.85547-1.1538h-.05566v3.49951h-1.81348Zm3.15039,5.20215c.88965,0,1.375-.79151,1.375-1.93262,0-1.13233-.47656-1.91162-1.375-1.91162-.88183,0-1.375.74511-1.375,1.91162S227.25439,9.02686,228.12744,9.02686Z"/><path class="cls-1" d="M236.75928,3.82471h1.81347v6.53906h-1.74121v-1.188h-.06836a2.00615,2.00615,0,0,1-1.98339,1.27295,2.19872,2.19872,0,0,1-2.21387-2.46045V3.82471h1.81347V7.66455a1.11953,1.11953,0,0,0,1.13282,1.25195,1.23178,1.23178,0,0,0,1.24707-1.33691Z"/><path class="cls-1" d="M243.50537,5.187H242.2749V8.35449c0,.50244.251.63867.61328.63867a2.52549,2.52549,0,0,0,.45118-.05957l.28515,1.34912a3.52223,3.52223,0,0,1-.9834.17041c-1.31543.05518-2.18847-.5791-2.17968-1.86035V5.187h-.89356V3.82471h.89356V2.25781h1.81347v1.5669h1.23047Z"/><path class="cls-1" d="M244.35693,7.124a3.09651,3.09651,0,0,1,3.17188-3.38427c1.72851,0,3.07324,1.09814,3.07324,3.32031v.49805h-4.45312V7.5625a1.4218,1.4218,0,0,0,1.48144,1.5752,1.23123,1.23123,0,0,0,1.25586-.75782l1.67773.11084a2.726,2.726,0,0,1-2.96289,2.001A3.06445,3.06445,0,0,1,244.35693,7.124Zm4.53809-.68945a1.28864,1.28864,0,0,0-1.33691-1.34131,1.38173,1.38173,0,0,0-1.40918,1.34131Z"/><path class="cls-1" d="M251.79248,3.82471h1.75781V4.96582h.06836A1.58864,1.58864,0,0,1,255.18994,3.731a2.74205,2.74205,0,0,1,.57031.064V5.4043a3.0422,3.0422,0,0,0-.7666-.09815A1.32054,1.32054,0,0,0,253.606,6.66406v3.69971h-1.81348Z"/><path class="cls-1" d="M.46,21.51953a3.09728,3.09728,0,0,1,3.21-3.37988,2.65071,2.65071,0,0,1,2.92871,2.50293H4.88721a1.1653,1.1653,0,0,0-1.1875-1.08985c-.84326,0-1.39649.707-1.39649,1.94141,0,1.25147.54932,1.9624,1.39649,1.9624a1.16416,1.16416,0,0,0,1.1875-1.08984H6.59863a2.64973,2.64973,0,0,1-2.92041,2.5249A3.09017,3.09017,0,0,1,.46,21.51953Z"/><path class="cls-1" d="M7.46484,22.9375c0-1.46045,1.1626-1.89453,2.45655-2.01367,1.13672-.11084,1.584-.166,1.584-.58789v-.02539c0-.53614-.35351-.84717-.9707-.84717a1.09478,1.09478,0,0,0-1.1626.75342l-1.67725-.13623A2.60433,2.60433,0,0,1,10.543,18.13965c1.456,0,2.77588.65527,2.77588,2.21338v4.41064H11.59863v-.90674h-.05078a2.00808,2.00808,0,0,1-1.91162,1.03028A1.91688,1.91688,0,0,1,7.46484,22.9375Zm4.05323-.51123v-.69385a4.36407,4.36407,0,0,1-1.26026.29395c-.63867.08935-1.06006.34033-1.06006.85156,0,.498.40039.75781.958.75781A1.25536,1.25536,0,0,0,11.51807,22.42627Z"/><path class="cls-1" d="M16.54785,24.76367H14.73438V18.22461h1.72851v1.15381h.07666a1.97526,1.97526,0,0,1,1.9668-1.23877A2.20533,2.20533,0,0,1,20.7627,20.6001v4.16357H18.94922V20.92383a1.12207,1.12207,0,0,0-1.16211-1.27735,1.20638,1.20638,0,0,0-1.23926,1.33692Z"/><path class="cls-1" d="M29.17139,18.22461h1.81347v6.53906H29.24365v-1.188h-.06787a2.0068,2.0068,0,0,1-1.98389,1.273A2.199,2.199,0,0,1,24.978,22.38818V18.22461H26.7915v3.83984a1.11979,1.11979,0,0,0,1.13282,1.252,1.23152,1.23152,0,0,0,1.24707-1.33692Z"/><path class="cls-1" d="M34.25293,24.76367H32.43945V18.22461H34.168v1.15381h.07666a1.97525,1.97525,0,0,1,1.9668-1.23877,2.20532,2.20532,0,0,1,2.25634,2.46045v4.16357H36.6543V20.92383a1.12207,1.12207,0,0,0-1.16211-1.27735,1.20637,1.20637,0,0,0-1.23926,1.33692Z"/><path class="cls-1" d="M39.6582,21.50244c0-2.24756,1.21338-3.36279,2.648-3.36279a1.9268,1.9268,0,0,1,1.86035,1.1831h.05567V16.04492h1.80908v8.71875H44.24316V23.71631H44.1665a1.93253,1.93253,0,0,1-1.85595,1.15381C40.82031,24.87012,39.6582,23.69092,39.6582,21.50244Zm4.602-.0083c0-1.1665-.49365-1.91162-1.375-1.91162-.89843,0-1.375.7793-1.375,1.91162,0,1.14111.48536,1.93262,1.375,1.93262C43.75781,23.42676,44.26025,22.66064,44.26025,21.49414Z"/><path class="cls-1" d="M47.26025,21.52393a3.09641,3.09641,0,0,1,3.17139-3.38428c1.72852,0,3.07373,1.09814,3.07373,3.32031V21.958H49.05225v.00439a1.42156,1.42156,0,0,0,1.48144,1.5752,1.23163,1.23163,0,0,0,1.25586-.75781l1.67774.11083a2.7262,2.7262,0,0,1-2.96338,2.001A3.06408,3.06408,0,0,1,47.26025,21.52393Zm4.53809-.68946a1.28919,1.28919,0,0,0-1.33691-1.34131,1.38143,1.38143,0,0,0-1.40918,1.34131Z"/><path class="cls-1" d="M54.6958,18.22461h1.7583v1.14111h.06836a1.58811,1.58811,0,0,1,1.5708-1.23486,2.702,2.702,0,0,1,.57031.064V19.8042a3.03556,3.03556,0,0,0-.76611-.09815A1.32067,1.32067,0,0,0,56.50928,21.064v3.69971H54.6958Z"/><path class="cls-1" d="M63.38037,20.19141a1.02124,1.02124,0,0,0-1.09375-.76612c-.562,0-1.00488.25537-1.00049.647-.00439.31494.22119.52343.83008.65576l1.18359.23828c1.26856.25976,1.88575.82568,1.89014,1.771-.00439,1.29-1.21777,2.1543-2.91211,2.1543-1.73242,0-2.79687-.771-2.96728-2.02246l1.78369-.09375a1.06369,1.06369,0,0,0,1.188.80908c.63427,0,1.05566-.27685,1.06445-.66406-.00879-.32812-.26856-.53662-.83887-.65137l-1.13232-.22558c-1.27735-.25537-1.89453-.89014-1.89014-1.86914-.00439-1.26026,1.09815-2.03467,2.77149-2.03467,1.65185,0,2.62207.74463,2.78418,1.94971Z"/><path class="cls-1" d="M69.81934,19.58691h-1.23v3.16748c0,.50245.251.63868.61279.63868a2.46271,2.46271,0,0,0,.45117-.06006l.28564,1.34961a3.53034,3.53034,0,0,1-.98339.17041c-1.31592.05517-2.18848-.5791-2.17969-1.86035V19.58691h-.894v-1.3623h.894V16.6582h1.81348v1.56641h1.23Z"/><path class="cls-1" d="M70.69678,22.9375c0-1.46045,1.1626-1.89453,2.45654-2.01367,1.13672-.11084,1.584-.166,1.584-.58789v-.02539c0-.53614-.35351-.84717-.9707-.84717a1.09478,1.09478,0,0,0-1.1626.75342l-1.67724-.13623a2.60432,2.60432,0,0,1,2.84814-1.94092c1.45606,0,2.77588.65527,2.77588,2.21338v4.41064H74.83057v-.90674h-.05078a2.00811,2.00811,0,0,1-1.91163,1.03028A1.91688,1.91688,0,0,1,70.69678,22.9375ZM74.75,22.42627v-.69385a4.36407,4.36407,0,0,1-1.26025.29395c-.63868.08935-1.06006.34033-1.06006.85156,0,.498.40039.75781.958.75781A1.25536,1.25536,0,0,0,74.75,22.42627Z"/><path class="cls-1" d="M79.7793,24.76367H77.96582V18.22461h1.72852v1.15381H79.771a1.97525,1.97525,0,0,1,1.96679-1.23877,2.20532,2.20532,0,0,1,2.25635,2.46045v4.16357H82.18066V20.92383a1.12207,1.12207,0,0,0-1.16211-1.27735A1.20637,1.20637,0,0,0,79.7793,20.9834Z"/><path class="cls-1" d="M85.18457,21.50244c0-2.24756,1.21338-3.36279,2.648-3.36279a1.9268,1.9268,0,0,1,1.86035,1.1831h.05567V16.04492h1.80908v8.71875H89.76953V23.71631h-.07666a1.93255,1.93255,0,0,1-1.856,1.15381C86.34668,24.87012,85.18457,23.69092,85.18457,21.50244Zm4.60205-.0083c0-1.1665-.49365-1.91162-1.375-1.91162-.89844,0-1.375.7793-1.375,1.91162,0,1.14111.48535,1.93262,1.375,1.93262C89.28418,23.42676,89.78662,22.66064,89.78662,21.49414Z"/><path class="cls-1" d="M93.08887,23.85254a1.01715,1.01715,0,0,1,1.02148-1.01318,1.01758,1.01758,0,1,1,0,2.03515A1.019,1.019,0,0,1,93.08887,23.85254Z"/><path class="cls-1" d="M102.98389,17.55615c-1.33252,0-2.23926,1.02588-2.23926,2.83985,0,1.82177.87256,2.85644,2.25635,2.85644a1.76676,1.76676,0,0,0,1.98779-1.7666h-1.87305V20.09766h3.64844v1.09863a3.51259,3.51259,0,0,1-3.772,3.68652c-2.45655,0-4.1167-1.71142-4.1167-4.47021,0-2.82666,1.77539-4.48682,4.07861-4.48682a3.54572,3.54572,0,0,1,3.729,2.9375h-1.87305A1.75673,1.75673,0,0,0,102.98389,17.55615Z"/><path class="cls-1" d="M107.8584,21.51953a3.22212,3.22212,0,1,1,6.43652,0,3.22177,3.22177,0,1,1-6.43652,0Zm4.59326-.01269c0-1.14063-.46826-1.98389-1.3667-1.98389-.915,0-1.3833.84326-1.3833,1.98389,0,1.14111.46826,1.97949,1.3833,1.97949C111.9834,23.48633,112.45166,22.648,112.45166,21.50684Z"/><path class="cls-1" d="M115.22168,21.51953a3.22212,3.22212,0,1,1,6.43652,0,3.22177,3.22177,0,1,1-6.43652,0Zm4.59326-.01269c0-1.14063-.46826-1.98389-1.3667-1.98389-.915,0-1.3833.84326-1.3833,1.98389,0,1.14111.46826,1.97949,1.3833,1.97949C119.34668,23.48633,119.81494,22.648,119.81494,21.50684Z"/><path class="cls-1" d="M122.60645,21.50244c0-2.24756,1.21337-3.36279,2.64794-3.36279a1.92682,1.92682,0,0,1,1.86036,1.1831h.05566V16.04492h1.80908v8.71875h-1.78808V23.71631h-.07666a1.93256,1.93256,0,0,1-1.856,1.15381C123.76855,24.87012,122.60645,23.69092,122.60645,21.50244Zm4.60205-.0083c0-1.1665-.49366-1.91162-1.375-1.91162-.89844,0-1.375.7793-1.375,1.91162,0,1.14111.48535,1.93262,1.375,1.93262C126.70605,23.42676,127.2085,22.66064,127.2085,21.49414Z"/><path class="cls-1" d="M133.25439,18.22461h1.78809v1.09814h.08106a1.9268,1.9268,0,0,1,1.86035-1.1831c1.43457,0,2.648,1.11523,2.648,3.36279,0,2.18848-1.16211,3.36768-2.65235,3.36768a1.93253,1.93253,0,0,1-1.856-1.15381h-.05567v3.49951h-1.81348Zm3.1504,5.20215c.88964,0,1.375-.79151,1.375-1.93262,0-1.13232-.47657-1.91162-1.375-1.91162-.88135,0-1.375.74512-1.375,1.91162S135.53223,23.42676,136.40479,23.42676Z"/><path class="cls-1" d="M140.84375,18.22461h1.7583v1.14111h.06836a1.58811,1.58811,0,0,1,1.5708-1.23486,2.702,2.702,0,0,1,.57031.064V19.8042a3.03556,3.03556,0,0,0-.76611-.09815,1.32067,1.32067,0,0,0-1.38818,1.35791v3.69971h-1.81348Z"/><path class="cls-1" d="M145.17822,21.51953a3.22213,3.22213,0,1,1,6.43653,0,3.22177,3.22177,0,1,1-6.43653,0Zm4.59326-.01269c0-1.14063-.46826-1.98389-1.36669-1.98389-.915,0-1.38331.84326-1.38331,1.98389,0,1.14111.46827,1.97949,1.38331,1.97949C149.30322,23.48633,149.77148,22.648,149.77148,21.50684Z"/><path class="cls-1" d="M152.7627,25.52979l1.67724-.22559a1.29543,1.29543,0,0,0,1.354.74512c.78759,0,1.3623-.34912,1.3623-1.24756V23.60547h-.07666a1.89866,1.89866,0,0,1-1.86475,1.06445c-1.47314,0-2.65234-1.01318-2.65234-3.18847,0-2.22657,1.21338-3.3418,2.648-3.3418a1.94017,1.94017,0,0,1,1.86914,1.1831h.06787V18.22461h1.80078v6.603c0,1.67285-1.32812,2.52441-3.19678,2.52441C153.98877,27.35205,152.98,26.56006,152.7627,25.52979Zm4.40185-4.05713c0-1.145-.49365-1.89014-1.375-1.89014-.89844,0-1.375.7793-1.375,1.89014,0,1.12841.48535,1.835,1.375,1.835C156.66211,23.30762,157.16455,22.62646,157.16455,21.47266Z"/><path class="cls-1" d="M160.40283,18.22461h1.7583v1.14111h.06836a1.58811,1.58811,0,0,1,1.5708-1.23486,2.70217,2.70217,0,0,1,.57032.064V19.8042a3.03564,3.03564,0,0,0-.76612-.09815,1.32067,1.32067,0,0,0-1.38818,1.35791v3.69971h-1.81348Z"/><path class="cls-1" d="M164.81787,22.9375c0-1.46045,1.1626-1.89453,2.45654-2.01367,1.13721-.11084,1.58448-.166,1.58448-.58789v-.02539c0-.53614-.35352-.84717-.97119-.84717a1.09478,1.09478,0,0,0-1.1626.75342l-1.67725-.13623a2.60433,2.60433,0,0,1,2.84815-1.94092c1.45605,0,2.77636.65527,2.77636,2.21338v4.41064h-1.7207v-.90674h-.05078a2.00809,2.00809,0,0,1-1.91162,1.03028A1.91688,1.91688,0,0,1,164.81787,22.9375Zm4.05371-.51123v-.69385a4.37156,4.37156,0,0,1-1.26074.29395c-.63867.08935-1.06006.34033-1.06006.85156,0,.498.40039.75781.958.75781A1.2558,1.2558,0,0,0,168.87158,22.42627Z"/><path class="cls-1" d="M172.0874,18.22461h1.72852v1.15381h.07617a1.83555,1.83555,0,0,1,1.82227-1.23877,1.7256,1.7256,0,0,1,1.77539,1.23877h.06836a2.11148,2.11148,0,0,1,4.03125.98779v4.39746h-1.80957v-4.04a.972.972,0,0,0-1.0127-1.08984,1.02058,1.02058,0,0,0-1.04785,1.13672v3.99316h-1.75781V20.68506a.96305.96305,0,0,0-.9961-1.05127,1.09608,1.09608,0,0,0-1.06445,1.20459v3.92529H172.0874Z"/><path class="cls-1" d="M183.02979,18.22461h1.72851v1.15381h.07715a1.83471,1.83471,0,0,1,1.82226-1.23877,1.72442,1.72442,0,0,1,1.77442,1.23877h.06836a2.11148,2.11148,0,0,1,4.03125.98779v4.39746h-1.8086v-4.04a.97271.97271,0,0,0-1.01367-1.08984,1.01987,1.01987,0,0,0-1.04687,1.13672v3.99316h-1.75879V20.68506a.96255.96255,0,0,0-.9961-1.05127,1.09608,1.09608,0,0,0-1.06445,1.20459v3.92529h-1.81347Z"/><path class="cls-1" d="M193.70947,21.52393a3.0963,3.0963,0,0,1,3.1709-3.38428c1.72852,0,3.07422,1.09814,3.07422,3.32031V21.958h-4.45313v.00439a1.42133,1.42133,0,0,0,1.48145,1.5752,1.232,1.232,0,0,0,1.25586-.75781l1.67773.11083a2.72642,2.72642,0,0,1-2.96386,2.001A3.06372,3.06372,0,0,1,193.70947,21.52393Zm4.53809-.68946a1.28974,1.28974,0,0,0-1.33692-1.34131,1.38113,1.38113,0,0,0-1.40918,1.34131Z"/><path class="cls-1" d="M201.144,18.22461h1.75879v1.14111h.06836a1.58759,1.58759,0,0,1,1.57031-1.23486,2.69482,2.69482,0,0,1,.57032.064V19.8042a3.02855,3.02855,0,0,0-.76563-.09815,1.3208,1.3208,0,0,0-1.38867,1.35791v3.69971H201.144Z"/><path class="cls-1" d="M209.82959,20.19141a1.0216,1.0216,0,0,0-1.09375-.76612c-.5625,0-1.00488.25537-1.001.647-.0039.31494.22168.52343.83008.65576l1.1836.23828c1.26855.25976,1.88574.82568,1.89062,1.771-.00488,1.29-1.21777,2.1543-2.91211,2.1543-1.73242,0-2.79687-.771-2.96777-2.02246l1.78418-.09375a1.06315,1.06315,0,0,0,1.1875.80908c.63476,0,1.05566-.27685,1.06445-.66406-.00879-.32812-.26855-.53662-.83887-.65137l-1.13183-.22558c-1.27735-.25537-1.89453-.89014-1.89063-1.86914-.0039-1.26026,1.09863-2.03467,2.77149-2.03467,1.65234,0,2.62207.74463,2.78418,1.94971Z"/><path class="cls-1" d="M215.0835,18.22461h1.834l1.01367,4.39355h.05957l1.05567-4.39355h1.80078l1.07324,4.36768h.05469l.99609-4.36768h1.83106l-1.77539,6.53906h-1.91993l-1.124-4.1123h-.08105l-1.124,4.1123h-1.915Z"/><path class="cls-1" d="M225.77393,18.22461h1.75878v1.14111h.06836a1.5876,1.5876,0,0,1,1.57032-1.23486,2.69473,2.69473,0,0,1,.57031.064V19.8042a3.02849,3.02849,0,0,0-.76563-.09815A1.3208,1.3208,0,0,0,227.5874,21.064v3.69971h-1.81347Z"/><path class="cls-1" d="M230.61084,16.46191a.983.983,0,1,1,.97852.91993A.95335.95335,0,0,1,230.61084,16.46191Zm.06738,1.7627h1.81348v6.53906h-1.81348Z"/><path class="cls-1" d="M237.42041,19.58691h-1.22949v3.16748c0,.50245.251.63868.6123.63868a2.45014,2.45014,0,0,0,.45117-.06006l.28614,1.34961a3.53936,3.53936,0,0,1-.98438.17041c-1.31543.05517-2.1875-.5791-2.17969-1.86035V19.58691h-.89355v-1.3623h.89355V16.6582h1.81446v1.56641h1.22949Z"/><path class="cls-1" d="M238.273,21.52393a3.0963,3.0963,0,0,1,3.1709-3.38428c1.72851,0,3.07422,1.09814,3.07422,3.32031V21.958h-4.45313v.00439a1.42133,1.42133,0,0,0,1.48145,1.5752,1.23205,1.23205,0,0,0,1.25586-.75781l1.67773.11083a2.72643,2.72643,0,0,1-2.96387,2.001A3.06372,3.06372,0,0,1,238.273,21.52393Zm4.53809-.68946a1.28975,1.28975,0,0,0-1.33692-1.34131,1.38112,1.38112,0,0,0-1.40918,1.34131Z"/><path class="cls-1" d="M248.22705,21.51953a3.097,3.097,0,0,1,3.21-3.37988,2.651,2.651,0,0,1,2.92871,2.50293h-1.71191a1.1653,1.1653,0,0,0-1.1875-1.08985c-.84277,0-1.39649.707-1.39649,1.94141,0,1.25147.54981,1.9624,1.39649,1.9624a1.16385,1.16385,0,0,0,1.1875-1.08984h1.71191a2.65016,2.65016,0,0,1-2.9209,2.5249A3.0898,3.0898,0,0,1,248.22705,21.51953Z"/><path class="cls-1" d="M255.2749,21.51953a3.22213,3.22213,0,1,1,6.43653,0,3.22177,3.22177,0,1,1-6.43653,0Zm4.59278-.01269c0-1.14063-.46778-1.98389-1.36622-1.98389-.915,0-1.38378.84326-1.38378,1.98389,0,1.14111.46875,1.97949,1.38378,1.97949C259.3999,23.48633,259.86768,22.648,259.86768,21.50684Z"/><path class="cls-1" d="M262.65869,21.50244c0-2.24756,1.21387-3.36279,2.64844-3.36279a1.92783,1.92783,0,0,1,1.86035,1.1831h.05566V16.04492h1.8086v8.71875h-1.78809V23.71631h-.07617a1.93329,1.93329,0,0,1-1.85644,1.15381C263.8208,24.87012,262.65869,23.69092,262.65869,21.50244Zm4.60254-.0083c0-1.1665-.49414-1.91162-1.375-1.91162-.89844,0-1.375.7793-1.375,1.91162,0,1.14111.48535,1.93262,1.375,1.93262C266.7583,23.42676,267.26123,22.66064,267.26123,21.49414Z"/><path class="cls-1" d="M270.26123,21.52393a3.0963,3.0963,0,0,1,3.1709-3.38428c1.72851,0,3.07422,1.09814,3.07422,3.32031V21.958h-4.45313v.00439a1.42133,1.42133,0,0,0,1.48145,1.5752,1.23205,1.23205,0,0,0,1.25586-.75781l1.67773.11083a2.72643,2.72643,0,0,1-2.96387,2.001A3.06372,3.06372,0,0,1,270.26123,21.52393Zm4.53809-.68946a1.28975,1.28975,0,0,0-1.33692-1.34131,1.38112,1.38112,0,0,0-1.40918,1.34131Z"/><path class="cls-1" d="M54.5415,33.98682h-1.23V37.1543c0,.50244.251.63867.6128.63867a2.51345,2.51345,0,0,0,.45117-.05957l.28564,1.34912a3.531,3.531,0,0,1-.98388.17041c-1.31543.05518-2.188-.5791-2.17969-1.86035V33.98682H50.604V32.62451h.89356V31.05762h1.814v1.56689h1.23Z"/><path class="cls-1" d="M57.6748,39.16357H55.86133V30.44482H57.624v3.3335h.07666a1.93235,1.93235,0,0,1,1.95411-1.23877A2.20158,2.20158,0,0,1,61.915,35v4.16357H60.10156V35.32373a1.11874,1.11874,0,0,0-1.1665-1.27734A1.21747,1.21747,0,0,0,57.6748,35.3833Z"/><path class="cls-1" d="M63.0459,37.3374c0-1.46045,1.1626-1.89453,2.45654-2.01367,1.13672-.11084,1.584-.166,1.584-.5874v-.02588c0-.53613-.35352-.84717-.97071-.84717a1.0948,1.0948,0,0,0-1.1626.75342l-1.67724-.13623A2.60432,2.60432,0,0,1,66.124,32.53955c1.45606,0,2.77588.65527,2.77588,2.21338v4.41064H67.17969v-.90673h-.05078a2.00811,2.00811,0,0,1-1.91162,1.03027A1.91688,1.91688,0,0,1,63.0459,37.3374Zm4.05322-.51123v-.69385a4.348,4.348,0,0,1-1.26025.294c-.63867.08935-1.06006.34033-1.06006.85156,0,.498.40039.75781.958.75781A1.25536,1.25536,0,0,0,67.09912,36.82617Z"/><path class="cls-1" d="M73.79346,33.98682h-1.23V37.1543c0,.50244.251.63867.61279.63867a2.51332,2.51332,0,0,0,.45117-.05957l.28565,1.34912a3.53116,3.53116,0,0,1-.98389.17041c-1.31543.05518-2.188-.5791-2.17969-1.86035V33.98682H69.856V32.62451h.89355V31.05762h1.814v1.56689h1.23Z"/><path class="cls-1" d="M79.57275,39.16357H77.75928V30.44482H79.522v3.3335h.07666a1.93233,1.93233,0,0,1,1.9541-1.23877A2.20158,2.20158,0,0,1,83.813,35v4.16357H81.99951V35.32373a1.11874,1.11874,0,0,0-1.1665-1.27734,1.21747,1.21747,0,0,0-1.26026,1.33691Z"/><path class="cls-1" d="M89.44385,32.62451h1.81347v6.53906H89.51611v-1.188h-.06787a2.00681,2.00681,0,0,1-1.98388,1.273,2.199,2.199,0,0,1-2.21387-2.46045V32.62451H87.064v3.83985a1.11978,1.11978,0,0,0,1.13282,1.252,1.23152,1.23152,0,0,0,1.24707-1.33692Z"/><path class="cls-1" d="M92.71191,32.62451h1.72852v1.15381h.07666a1.83513,1.83513,0,0,1,1.82227-1.23877,1.725,1.725,0,0,1,1.7749,1.23877h.06836a2.11148,2.11148,0,0,1,4.03125.98779v4.39746h-1.80908v-4.04a.97237.97237,0,0,0-1.01319-1.08985,1.02047,1.02047,0,0,0-1.04736,1.13672v3.99316h-1.7583V35.085a.9628.9628,0,0,0-.9961-1.05127,1.09608,1.09608,0,0,0-1.06445,1.20459v3.92529H92.71191Z"/><path class="cls-1" d="M103.34814,37.3374c0-1.46045,1.1626-1.89453,2.45655-2.01367,1.13672-.11084,1.584-.166,1.584-.5874v-.02588c0-.53613-.35351-.84717-.9707-.84717a1.09479,1.09479,0,0,0-1.1626.75342l-1.67725-.13623a2.60433,2.60433,0,0,1,2.84815-1.94092c1.45605,0,2.77588.65527,2.77588,2.21338v4.41064h-1.72022v-.90673h-.05078a2.00809,2.00809,0,0,1-1.91162,1.03027A1.91688,1.91688,0,0,1,103.34814,37.3374Zm4.05323-.51123v-.69385a4.348,4.348,0,0,1-1.26026.294c-.63867.08935-1.06006.34033-1.06006.85156,0,.498.4004.75781.958.75781A1.25536,1.25536,0,0,0,107.40137,36.82617Z"/><path class="cls-1" d="M112.43115,39.16357h-1.81347V32.62451h1.72851v1.15381h.07666a1.97527,1.97527,0,0,1,1.9668-1.23877A2.20533,2.20533,0,0,1,116.646,35v4.16357h-1.81348V35.32373a1.12206,1.12206,0,0,0-1.16211-1.27734,1.20637,1.20637,0,0,0-1.23926,1.33691Z"/><path class="cls-1" d="M121.85938,34.59131a1.02124,1.02124,0,0,0-1.09376-.76611c-.562,0-1.00488.25537-1.00048.647-.0044.31494.22119.52344.83007.65576l1.1836.23828c1.26855.25977,1.88574.82568,1.89014,1.771-.0044,1.29-1.21778,2.15429-2.91211,2.15429-1.73243,0-2.79688-.771-2.96729-2.02246l1.78369-.09375a1.06371,1.06371,0,0,0,1.188.80909c.63428,0,1.05566-.27686,1.06445-.66407-.00879-.32812-.26855-.53662-.83886-.65136l-1.13233-.22559c-1.27734-.25537-1.89453-.88965-1.89013-1.86914-.0044-1.26026,1.09814-2.03467,2.77148-2.03467,1.65186,0,2.62207.74463,2.78418,1.94971Z"/><path class="cls-1" d="M127.33887,35.91943a3.09727,3.09727,0,0,1,3.21-3.37988,2.65071,2.65071,0,0,1,2.92871,2.50293h-1.71143a1.16528,1.16528,0,0,0-1.1875-1.08984c-.84326,0-1.39648.707-1.39648,1.9414,0,1.25147.54932,1.96241,1.39648,1.96241a1.16416,1.16416,0,0,0,1.1875-1.08985h1.71143a2.64973,2.64973,0,0,1-2.92041,2.5249A3.09017,3.09017,0,0,1,127.33887,35.91943Z"/><path class="cls-1" d="M134.34375,37.3374c0-1.46045,1.1626-1.89453,2.45654-2.01367,1.13672-.11084,1.584-.166,1.584-.5874v-.02588c0-.53613-.35352-.84717-.97071-.84717a1.09478,1.09478,0,0,0-1.16259.75342l-1.67725-.13623a2.60433,2.60433,0,0,1,2.84815-1.94092c1.45605,0,2.77587.65527,2.77587,2.21338v4.41064h-1.72021v-.90673h-.05078a2.0081,2.0081,0,0,1-1.91162,1.03027A1.91688,1.91688,0,0,1,134.34375,37.3374Zm4.05322-.51123v-.69385a4.348,4.348,0,0,1-1.26025.294c-.63867.08935-1.06006.34033-1.06006.85156,0,.498.40039.75781.958.75781A1.25535,1.25535,0,0,0,138.397,36.82617Z"/><path class="cls-1" d="M143.42676,39.16357h-1.81348V32.62451h1.72852v1.15381h.07666a1.97525,1.97525,0,0,1,1.96679-1.23877A2.20532,2.20532,0,0,1,147.6416,35v4.16357h-1.81348V35.32373a1.12206,1.12206,0,0,0-1.1621-1.27734,1.20636,1.20636,0,0,0-1.23926,1.33691Z"/><path class="cls-1" d="M156.05029,32.62451h1.81348v6.53906h-1.74121v-1.188h-.06787a2.00683,2.00683,0,0,1-1.98389,1.273,2.199,2.199,0,0,1-2.21387-2.46045V32.62451h1.81348v3.83985a1.11978,1.11978,0,0,0,1.13281,1.252,1.23151,1.23151,0,0,0,1.24707-1.33692Z"/><path class="cls-1" d="M161.13184,39.16357h-1.81348V32.62451h1.72852v1.15381h.07666a1.97525,1.97525,0,0,1,1.96679-1.23877A2.20532,2.20532,0,0,1,165.34668,35v4.16357H163.5332V35.32373a1.12206,1.12206,0,0,0-1.16211-1.27734,1.20636,1.20636,0,0,0-1.23925,1.33691Z"/><path class="cls-1" d="M166.53711,35.90234c0-2.24755,1.21338-3.36279,2.64795-3.36279a1.92576,1.92576,0,0,1,1.86035,1.18311h.05566V30.44482h1.80957v8.71875h-1.78808V38.11621h-.07715A1.9318,1.9318,0,0,1,169.18994,39.27C167.69922,39.27,166.53711,38.09082,166.53711,35.90234Zm4.602-.0083c0-1.1665-.49316-1.91162-1.375-1.91162-.89844,0-1.375.7793-1.375,1.91162,0,1.14112.48535,1.93262,1.375,1.93262C170.63721,37.82666,171.13916,37.06055,171.13916,35.894Z"/><path class="cls-1" d="M174.14014,35.92383a3.0963,3.0963,0,0,1,3.1709-3.38428c1.72851,0,3.07421,1.09815,3.07421,3.32031v.498h-4.45312v.00439a1.42132,1.42132,0,0,0,1.48144,1.5752,1.232,1.232,0,0,0,1.25586-.75781l1.67774.11084a2.72643,2.72643,0,0,1-2.96387,2.001A3.06372,3.06372,0,0,1,174.14014,35.92383Zm4.53808-.68945a1.28973,1.28973,0,0,0-1.33691-1.34131,1.38111,1.38111,0,0,0-1.40918,1.34131Z"/><path class="cls-1" d="M181.57471,32.62451h1.75879v1.14111h.06836a1.58759,1.58759,0,0,1,1.57031-1.23486,2.72638,2.72638,0,0,1,.57031.064V34.2041a3.0285,3.0285,0,0,0-.76562-.09814,1.3208,1.3208,0,0,0-1.38868,1.35791v3.6997h-1.81347Z"/><path class="cls-1" d="M190.26025,34.59131a1.02159,1.02159,0,0,0-1.09375-.76611c-.5625,0-1.00488.25537-1.001.647-.00391.31494.22168.52344.83008.65576l1.18359.23828c1.26855.25977,1.88574.82568,1.89062,1.771-.00488,1.29-1.21777,2.15429-2.91211,2.15429-1.73242,0-2.79687-.771-2.96777-2.02246l1.78418-.09375a1.06316,1.06316,0,0,0,1.1875.80909c.63477,0,1.05567-.27686,1.06445-.66407-.00878-.32812-.26855-.53662-.83886-.65136l-1.13184-.22559c-1.27734-.25537-1.89453-.88965-1.89062-1.86914-.00391-1.26026,1.09863-2.03467,2.77148-2.03467,1.65234,0,2.62207.74463,2.78418,1.94971Z"/><path class="cls-1" d="M196.69873,33.98682h-1.22949V37.1543c0,.50244.251.63867.6123.63867a2.50046,2.50046,0,0,0,.45117-.05957l.28614,1.34912a3.53936,3.53936,0,0,1-.98438.17041c-1.31543.05518-2.1875-.5791-2.17968-1.86035V33.98682h-.89356V32.62451h.89356V31.05762h1.81445v1.56689h1.22949Z"/><path class="cls-1" d="M197.57568,37.3374c0-1.46045,1.16309-1.89453,2.457-2.01367,1.13672-.11084,1.584-.166,1.584-.5874v-.02588c0-.53613-.35352-.84717-.9707-.84717a1.09579,1.09579,0,0,0-1.16309.75342l-1.67676-.13623a2.60343,2.60343,0,0,1,2.84766-1.94092c1.45605,0,2.77637.65527,2.77637,2.21338v4.41064h-1.72071v-.90673h-.05078a2.00781,2.00781,0,0,1-1.91113,1.03027A1.91705,1.91705,0,0,1,197.57568,37.3374Zm4.05371-.51123v-.69385a4.35154,4.35154,0,0,1-1.26074.294c-.63867.08935-1.05957.34033-1.05957.85156,0,.498.40039.75781.958.75781A1.25535,1.25535,0,0,0,201.62939,36.82617Z"/><path class="cls-1" d="M206.65869,39.16357h-1.81348V32.62451h1.72852v1.15381h.07715a1.97525,1.97525,0,0,1,1.9668-1.23877A2.205,2.205,0,0,1,210.87354,35v4.16357h-1.81348V35.32373a1.12207,1.12207,0,0,0-1.16211-1.27734,1.20661,1.20661,0,0,0-1.23926,1.33691Z"/><path class="cls-1" d="M212.064,35.90234c0-2.24755,1.2129-3.36279,2.64747-3.36279a1.92577,1.92577,0,0,1,1.86035,1.18311h.05566V30.44482H218.437v8.71875h-1.78808V38.11621h-.07715A1.93181,1.93181,0,0,1,214.71631,39.27C213.22607,39.27,212.064,38.09082,212.064,35.90234Zm4.60157-.0083c0-1.1665-.49317-1.91162-1.375-1.91162-.89844,0-1.375.7793-1.375,1.91162,0,1.14112.48535,1.93262,1.375,1.93262C216.16357,37.82666,216.66553,37.06055,216.66553,35.894Z"/><path class="cls-1" d="M219.96826,38.25244a1.01779,1.01779,0,0,1,1.02149-1.01318,1.01759,1.01759,0,1,1,0,2.03515A1.01965,1.01965,0,0,1,219.96826,38.25244Z"/><path class="cls-1" d="M223.82764,31.36426A3.12846,3.12846,0,0,1,222.7251,33.54l-.80078-.47266a3.03747,3.03747,0,0,0,.541-1.69433v-.92823h1.36231Zm2.13672,0A3.12468,3.12468,0,0,1,224.86182,33.54l-.80078-.47266a3.03747,3.03747,0,0,0,.541-1.69433v-.92823h1.36231Z"/><path class="cls-1" d="M105.74072,49.67285H93.75244v-.93652h11.98828Z"/><path class="cls-1" d="M108.06787,44.84521l2.96289,7.23731h.10254l2.96289-7.23731H115.356V53.564h-.98731v-6.624h-.08545l-2.72461,6.624H110.605l-2.72461-6.624h-.085v6.624h-.98779V44.84521Z"/><path class="cls-1" d="M117.03467,51.708c0-1.49854,1.32422-1.76709,2.5376-1.92432,1.19189-.15332,1.686-.11084,1.686-.59619v-.03418a1.21466,1.21466,0,0,0-1.37939-1.32812,1.76666,1.76666,0,0,0-1.70313.98779l-.95361-.34082a2.65555,2.65555,0,0,1,2.62256-1.53223,2.14815,2.14815,0,0,1,2.418,2.31592V53.564h-1.0044v-.88525H121.207a2.05525,2.05525,0,0,1-1.94141,1.03858A2.02094,2.02094,0,0,1,117.03467,51.708Zm4.22363-.51123v-.91944a5.15242,5.15242,0,0,1-1.7373.37452c-.78321.10253-1.48145.34082-1.48145,1.10693,0,.69824.5791,1.05566,1.3794,1.05566A1.67874,1.67874,0,0,0,121.2583,51.19678Z"/><path class="cls-1" d="M124.10791,47.0249h.9707v.9878h.06836a1.77859,1.77859,0,0,1,1.70264-1.08985c.14893,0,.41309.0083.52783.01709v1.02149a3.06824,3.06824,0,0,0-.61279-.06788,1.54646,1.54646,0,0,0-1.65186,1.53223V53.564h-1.00488Z"/><path class="cls-1" d="M131.82666,47.87646h-1.396v3.81446c0,.85107.4253.98779.86817.98779a1.93022,1.93022,0,0,0,.44287-.05127l.2041.90235a2.08356,2.08356,0,0,1-.749.11914,1.67221,1.67221,0,0,1-1.771-1.68555V47.87646H128.438V47.0249h.98779V45.458h1.00488V47.0249h1.396Z"/><path class="cls-1" d="M133.14209,45.25391a.71594.71594,0,1,1,.71484.68115A.70175.70175,0,0,1,133.14209,45.25391Zm.2041,1.771h1.00488V53.564h-1.00488Z"/><path class="cls-1" d="M137.19775,53.564h-1.00488V47.0249h.9707v1.022h.085a1.92962,1.92962,0,0,1,1.90722-1.10694c1.32422,0,2.21387.80029,2.21387,2.46924V53.564h-1.0044V49.47705a1.44506,1.44506,0,0,0-1.49853-1.63476,1.62075,1.62075,0,0,0-1.66895,1.78808Z"/><path class="cls-1" d="M146.72607,44.84521h5.228v.93653h-4.17236v2.9458h3.78076v.937h-3.78076V53.564h-1.05567Z"/><path class="cls-1" d="M152.84619,50.32861c0-2.04345,1.1919-3.38867,2.96289-3.38867s2.96289,1.34522,2.96289,3.38867c0,2.02637-1.19189,3.37159-2.96289,3.37159S152.84619,52.355,152.84619,50.32861Zm4.9209,0c0-1.31152-.61279-2.48632-1.958-2.48632s-1.95849,1.1748-1.95849,2.48632c0,1.311.61328,2.46924,1.95849,2.46924S157.76709,51.63965,157.76709,50.32861Z"/><path class="cls-1" d="M159.57861,47.0249h1.05567l1.41357,5.00635h.06787l1.39649-5.00635H164.585l1.3794,4.98926h.06835l1.41309-4.98926h1.05566L166.50928,53.564h-.9878l-1.43017-5.02343h-.102L162.55859,53.564h-.98779Z"/><path class="cls-1" d="M170.84424,53.564h-1.00488V44.84521h1.00488Z"/><path class="cls-1" d="M172.37939,50.3457c0-2.00976,1.17481-3.40576,2.94629-3.40576,1.36231,0,2.80957.83447,2.80957,3.26953v.4253h-4.74707a1.98113,1.98113,0,0,0,2.03907,2.16308,1.60013,1.60013,0,0,0,1.63476-1.022l.9707.27246a2.54373,2.54373,0,0,1-2.60546,1.65186C173.5376,53.7002,172.37939,52.355,172.37939,50.3457Zm4.73438-.5791a1.77272,1.77272,0,0,0-1.78809-1.92431,1.95317,1.95317,0,0,0-1.9375,1.92431Z"/><path class="cls-1" d="M179.67432,47.0249h.9707v.9878h.06836a1.7779,1.7779,0,0,1,1.70215-1.08985c.14941,0,.41308.0083.52832.01709v1.02149a3.07471,3.07471,0,0,0-.61328-.06788,1.54631,1.54631,0,0,0-1.65137,1.53223V53.564h-1.00488Z"/></svg>